<?xml version="1.0" standalone="no"?>
<!DOCTYPE svg PUBLIC "-//W3C//DTD SVG 20010904//EN"
 "http://www.w3.org/TR/2001/REC-SVG-20010904/DTD/svg10.dtd">
<svg version="1.0" xmlns="http://www.w3.org/2000/svg"
 width="276.000000pt" height="276.000000pt" viewBox="0 0 276.000000 276.000000"
 preserveAspectRatio="xMidYMid meet">
<metadata>
Created by potrace 1.11, written by Peter Selinger 2001-2013
</metadata>
<g transform="translate(0.000000,276.000000) scale(0.100000,-0.100000)"
fill="#000000" stroke="none">
<path d="M1775 2146 c-122 -30 -217 -102 -267 -204 -30 -60 -33 -75 -33 -152
1 -75 4 -92 32 -146 60 -115 175 -189 383 -244 202 -55 275 -111 275 -215 0
-69 -36 -124 -102 -156 -69 -35 -220 -34 -311 0 -34 13 -65 27 -67 31 -2 4
-12 53 -21 109 l-17 101 -89 0 -88 0 0 -155 0 -154 68 -40 c116 -69 233 -101
371 -102 222 -1 372 72 440 215 37 75 46 135 32 210 -31 170 -144 267 -397
344 -166 50 -202 66 -242 105 -41 40 -57 93 -42 146 14 53 42 85 98 113 94 46
309 16 331 -46 5 -12 14 -56 21 -98 l13 -78 88 0 89 0 0 144 0 144 -52 35
c-69 45 -158 82 -232 96 -77 14 -217 13 -281 -3z"/>
<path d="M668 2070 c-2 -44 -3 -80 -3 -81 0 0 36 -6 80 -12 l80 -12 3 -399 c1
-256 -2 -412 -8 -437 -14 -51 -62 -105 -107 -120 -49 -16 -138 -7 -171 18 -38
28 -71 79 -77 119 -3 19 -7 50 -10 69 l-6 35 -99 0 c-95 0 -100 -1 -105 -23
-9 -34 23 -176 50 -222 36 -60 103 -121 168 -150 111 -51 283 -49 394 5 73 36
115 81 157 170 l31 65 5 434 5 435 30 7 c17 4 47 10 68 13 l37 7 0 79 0 80
-259 0 -259 0 -4 -80z"/>
<path d="M220 675 l0 -85 1195 0 1195 0 0 85 0 85 -1195 0 -1195 0 0 -85z"/>
</g>
</svg>
